HIERARCHY
ROOT Hips
{
	OFFSET 0.000000 103.266502 0.000000
	CHANNELS 6 Xposition Yposition Zposition Xrotation Yrotation Zrotation 
	JOINT Spine
	{
		OFFSET -0.002400 12.777504 0.315300
		CHANNELS 3 Xrotation Yrotation Zrotation
		JOINT Spine1
		{
			OFFSET -0.002067 5.816869 0.032633
			CHANNELS 3 Xrotation Yrotation Zrotation
			JOINT Spine1_split
			{
				OFFSET -0.002067 5.816869 0.032633
				CHANNELS 3 Xrotation Yrotation Zrotation
				JOINT Spine2
				{
					OFFSET -0.002067 5.816869 0.032633
					CHANNELS 3 Xrotation Yrotation Zrotation
					JOINT Neck
					{
						OFFSET -0.003700 21.199493 -0.826900
						CHANNELS 3 Xrotation Yrotation Zrotation
						JOINT Head
						{
							OFFSET 0.000000 20.442200 4.834800
							CHANNELS 3 Xrotation Yrotation Zrotation
							JOINT HeadTop_End
							{
								OFFSET 0.000000 34.668396 4.968400
								CHANNELS 3 Xrotation Yrotation Zrotation
								End Site
								{
									OFFSET 0.000000 0.000000 0.000000
								}
							}
						}
					}
					JOINT LeftShoulder
					{
						OFFSET 3.288150 8.794197 -1.372250
						CHANNELS 3 Xrotation Yrotation Zrotation
						JOINT LeftShoulder_split
						{
							OFFSET 3.288150 8.794197 -1.372250
							CHANNELS 3 Xrotation Yrotation Zrotation
							JOINT LeftArm
							{
								OFFSET 11.953299 -2.279007 -0.146200
								CHANNELS 3 Xrotation Yrotation Zrotation
								JOINT LeftForeArm
								{
									OFFSET 18.448900 0.000000 0.000000
									CHANNELS 3 Xrotation Yrotation Zrotation
									JOINT LeftHand
									{
										OFFSET 29.527798 0.000000 0.000000
										CHANNELS 3 Xrotation Yrotation Zrotation
										JOINT LeftHandThumb1
										{
											OFFSET 10.739754 -2.369614 9.225399
											CHANNELS 3 Xrotation Yrotation Zrotation
											JOINT LeftHandThumb2
											{
												OFFSET 4.926170 -2.844131 2.844125
												CHANNELS 3 Xrotation Yrotation Zrotation
												JOINT LeftHandThumb3
												{
													OFFSET 4.614891 -2.664413 2.664409
													CHANNELS 3 Xrotation Yrotation Zrotation
													JOINT LeftHandThumb4
													{
														OFFSET 4.432465 -2.559082 2.559083
														CHANNELS 3 Xrotation Yrotation Zrotation
														End Site
														{
															OFFSET 0.000000 0.000000 0.000000
														}
													}
												}
											}
										}
										JOINT LeftHandIndex1
										{
											OFFSET 26.467674 0.187653 6.405298
											CHANNELS 3 Xrotation Yrotation Zrotation
											JOINT LeftHandIndex2
											{
												OFFSET 8.792900 0.000000 0.000000
												CHANNELS 3 Xrotation Yrotation Zrotation
												JOINT LeftHandIndex3
												{
													OFFSET 10.075203 0.000000 0.000000
													CHANNELS 3 Xrotation Yrotation Zrotation
													End Site
													{
														OFFSET 0.000000 0.000000 0.000000
													}
												}
											}
										}
										JOINT LeftHandMiddle1
										{
											OFFSET 25.764404 0.000000 0.000000
											CHANNELS 3 Xrotation Yrotation Zrotation
											JOINT LeftHandMiddle2
											{
												OFFSET 9.393974 0.000000 0.000000
												CHANNELS 3 Xrotation Yrotation Zrotation
												JOINT LeftHandMiddle3
												{
													OFFSET 10.771950 0.000000 0.000000
													CHANNELS 3 Xrotation Yrotation Zrotation
													End Site
													{
														OFFSET 0.000000 0.000000 0.000000
													}
												}
											}
										}
										JOINT LeftHandRing1
										{
											OFFSET 24.660927 0.144547 -6.225808
											CHANNELS 3 Xrotation Yrotation Zrotation
											JOINT LeftHandRing2
											{
												OFFSET 9.393799 0.000000 0.000000
												CHANNELS 3 Xrotation Yrotation Zrotation
												JOINT LeftHandRing3
												{
													OFFSET 9.928497 0.000000 0.000000
													CHANNELS 3 Xrotation Yrotation Zrotation
													End Site
													{
														OFFSET 0.000000 0.000000 0.000000
													}
												}
											}
										}
										JOINT LeftHandPinky1
										{
											OFFSET 23.655350 0.125290 -12.815412
											CHANNELS 3 Xrotation Yrotation Zrotation
											JOINT LeftHandPinky2
											{
												OFFSET 8.425102 0.000000 0.000000
												CHANNELS 3 Xrotation Yrotation Zrotation
												JOINT LeftHandPinky3
												{
													OFFSET 8.147003 0.000000 0.000000
													CHANNELS 3 Xrotation Yrotation Zrotation
													End Site
													{
														OFFSET 0.000000 0.000000 0.000000
													}
												}
											}
										}
									}
								}
							}
						}
					}
					JOINT RightShoulder
					{
						OFFSET -3.249400 8.794197 -1.372250
						CHANNELS 3 Xrotation Yrotation Zrotation
						JOINT RightShoulder_split
						{
							OFFSET -3.249400 8.794197 -1.372250
							CHANNELS 3 Xrotation Yrotation Zrotation
							JOINT RightArm
							{
								OFFSET -11.953299 -2.279007 -0.146200
								CHANNELS 3 Xrotation Yrotation Zrotation
								JOINT RightForeArm
								{
									OFFSET -18.448900 0.000000 0.000000
									CHANNELS 3 Xrotation Yrotation Zrotation
									JOINT RightHand
									{
										OFFSET -29.527802 0.000000 0.000000
										CHANNELS 3 Xrotation Yrotation Zrotation
										JOINT RightHandThumb1
										{
											OFFSET -10.739754 -2.369614 9.225399
											CHANNELS 3 Xrotation Yrotation Zrotation
											JOINT RightHandThumb2
											{
												OFFSET -4.926170 -2.844131 2.844125
												CHANNELS 3 Xrotation Yrotation Zrotation
												JOINT RightHandThumb3
												{
													OFFSET -4.614891 -2.664413 2.664409
													CHANNELS 3 Xrotation Yrotation Zrotation
													JOINT RightHandThumb4
													{
														OFFSET -4.432465 -2.559082 2.559083
														CHANNELS 3 Xrotation Yrotation Zrotation
														End Site
														{
															OFFSET 0.000000 0.000000 0.000000
														}
													}
												}
											}
										}
										JOINT RightHandIndex1
										{
											OFFSET -26.467674 0.187653 6.405298
											CHANNELS 3 Xrotation Yrotation Zrotation
											JOINT RightHandIndex2
											{
												OFFSET -8.792900 0.000000 0.000000
												CHANNELS 3 Xrotation Yrotation Zrotation
												JOINT RightHandIndex3
												{
													OFFSET -10.075203 0.000000 0.000000
													CHANNELS 3 Xrotation Yrotation Zrotation
													End Site
													{
														OFFSET 0.000000 0.000000 0.000000
													}
												}
											}
										}
										JOINT RightHandMiddle1
										{
											OFFSET -25.764404 0.000000 0.000000
											CHANNELS 3 Xrotation Yrotation Zrotation
											JOINT RightHandMiddle2
											{
												OFFSET -9.393974 0.000000 0.000000
												CHANNELS 3 Xrotation Yrotation Zrotation
												JOINT RightHandMiddle3
												{
													OFFSET -10.771950 0.000000 0.000000
													CHANNELS 3 Xrotation Yrotation Zrotation
													End Site
													{
														OFFSET 0.000000 0.000000 0.000000
													}
												}
											}
										}
										JOINT RightHandRing1
										{
											OFFSET -24.660927 0.144547 -6.225808
											CHANNELS 3 Xrotation Yrotation Zrotation
											JOINT RightHandRing2
											{
												OFFSET -9.393799 0.000000 0.000000
												CHANNELS 3 Xrotation Yrotation Zrotation
												JOINT RightHandRing3
												{
													OFFSET -9.928497 0.000000 0.000000
													CHANNELS 3 Xrotation Yrotation Zrotation
													End Site
													{
														OFFSET 0.000000 0.000000 0.000000
													}
												}
											}
										}
										JOINT RightHandPinky1
										{
											OFFSET -23.655350 0.125290 -12.815412
											CHANNELS 3 Xrotation Yrotation Zrotation
											JOINT RightHandPinky2
											{
												OFFSET -8.425102 0.000000 0.000000
												CHANNELS 3 Xrotation Yrotation Zrotation
												JOINT RightHandPinky3
												{
													OFFSET -8.147003 0.000000 0.000000
													CHANNELS 3 Xrotation Yrotation Zrotation
													End Site
													{
														OFFSET 0.000000 0.000000 0.000000
													}
												}
											}
										}
									}
								}
							}
						}
					}
				}
			}
		}
	}
	JOINT LeftUpLeg
	{
		OFFSET 11.394100 -6.187798 -0.413800
		CHANNELS 3 Xrotation Yrotation Zrotation
		JOINT LeftLeg
		{
			OFFSET 0.430247 -32.302673 3.732800
			CHANNELS 3 Xrotation Yrotation Zrotation
			JOINT LeftFoot
			{
				OFFSET -0.430247 -48.264931 -6.423300
				CHANNELS 3 Xrotation Yrotation Zrotation
				JOINT LeftToeBase
				{
					OFFSET 4.230900 -16.068199 23.438400
					CHANNELS 3 Xrotation Yrotation Zrotation
					JOINT LeftToe_End
					{
						OFFSET 4.510700 0.695400 19.974600
						CHANNELS 3 Xrotation Yrotation Zrotation
						End Site
						{
							OFFSET 0.000000 0.000000 0.000000
						}
					}
				}
			}
		}
	}
	JOINT RightUpLeg
	{
		OFFSET -11.333700 -6.187798 -0.413800
		CHANNELS 3 Xrotation Yrotation Zrotation
		JOINT RightLeg
		{
			OFFSET -0.430392 -32.302628 3.733000
			CHANNELS 3 Xrotation Yrotation Zrotation
			JOINT RightFoot
			{
				OFFSET 0.430392 -48.264973 -6.423500
				CHANNELS 3 Xrotation Yrotation Zrotation
				JOINT RightToeBase
				{
					OFFSET -4.230900 -16.068199 23.438400
					CHANNELS 3 Xrotation Yrotation Zrotation
					JOINT RightToe_End
					{
						OFFSET -4.510700 0.695400 19.974600
						CHANNELS 3 Xrotation Yrotation Zrotation
						End Site
						{
							OFFSET 0.000000 0.000000 0.000000
						}
					}
				}
			}
		}
	}
}
MOTION
Frames: 4
Frame Time: 0.016667
-0.691063 67.206116 6.607345 38.744651 -53.648158 31.045546 8.238958 -2.064885 -2.743345 3.592004 -3.361500 -2.519238 0.000000 0.000000 0.000000 3.576395 -3.306021 -2.583294 -4.843173 17.213122 -6.645894 -39.838697 36.524392 9.074934 -0.000000 0.000001 0.000000 5.547264 -8.009817 -6.640982 0.000000 0.000000 0.000000 -64.034280 1.869210 -22.502837 21.515678 -29.366794 16.956523 -2.616381 -8.068152 2.194873 40.109938 -15.297139 -0.360509 5.639814 28.097911 11.338844 1.088575 40.896297 22.734017 0.000001 0.000000 -0.000001 6.880134 2.821178 -61.138594 8.247995 7.640047 -89.897884 0.000001 0.000000 0.000001 -2.344779 4.689008 -62.667874 8.755244 9.896969 -87.054675 0.000000 -0.000001 0.000001 -9.042442 10.045667 -60.766178 8.524157 9.509009 -66.902550 -0.000004 -0.000001 0.000001 -17.946899 14.754991 -51.485853 8.862280 8.673542 -84.822378 0.000001 0.000000 0.000000 5.583211 9.006405 15.903918 0.000000 0.000000 0.000000 -10.769870 1.892043 48.290827 -18.711341 38.477232 8.552180 6.179201 2.978098 -16.977718 -6.830673 -6.304608 5.093501 1.899669 -22.662921 -8.729836 -1.009206 6.019742 3.060242 -0.000001 -0.000002 0.000000 -0.976048 0.915615 -2.034107 0.028898 -0.078676 8.598517 0.000001 0.000003 0.000002 1.418805 -6.781362 2.948461 1.033153 -4.271125 20.381551 -0.000002 -0.000000 -0.000002 -5.862042 -13.951768 7.701491 1.592909 -4.798650 20.257212 -0.000001 0.000000 0.000002 -5.934309 -14.361610 26.354241 2.930748 -2.669608 12.240940 -0.000001 -0.000001 0.000001 -92.554104 -14.089296 24.759248 94.101565 -9.460623 1.382368 -19.948416 0.580197 -16.959551 -1.836420 -0.000607 -0.000033 -0.000000 0.000001 -0.000000 -93.735829 4.426716 -32.852500 96.377473 5.097096 0.829116 -19.901192 -1.527466 12.275779 0.710707 0.013942 -0.061738 -0.000000 0.000000 0.000000 
-0.456961 65.710960 6.166479 39.346063 -53.485442 31.405667 7.953230 -1.991062 -2.653793 3.758341 -3.279235 -2.496425 0.000000 0.000000 0.000000 3.743201 -3.226203 -2.558060 -4.149935 17.553325 -7.160894 -39.823042 36.047184 8.584218 0.000000 -0.000000 -0.000000 5.745039 -8.108529 -6.895807 0.000000 0.000000 0.000000 -64.657030 0.940652 -22.490092 22.078525 -28.805708 16.993203 -2.188446 -8.346540 1.944083 40.109931 -15.297143 -0.360512 5.639813 28.097920 11.338841 1.088573 40.896297 22.734015 -0.000004 -0.000001 -0.000002 6.879332 2.813766 -61.137884 8.247993 7.640048 -89.897891 -0.000001 -0.000000 0.000001 -2.346723 4.689030 -62.672805 8.755131 9.896996 -87.054477 0.000000 -0.000001 0.000000 -9.042447 10.045667 -60.766178 8.524217 9.509095 -66.906211 -0.000001 -0.000000 -0.000001 -17.946899 14.754991 -51.485850 8.862077 8.673813 -84.826687 -0.000001 0.000000 -0.000002 5.819251 9.101607 16.094144 0.000000 0.000000 0.000000 -10.347738 2.384185 47.454447 -19.056445 39.289618 8.937005 5.144258 3.543851 -17.909675 -7.273774 -5.961019 4.974729 1.807448 -22.244867 -8.652309 -1.201062 6.515367 3.220164 -0.000002 -0.000000 -0.000003 -0.859993 0.831749 -2.769308 0.027982 -0.078734 7.696504 0.000001 -0.000000 0.000000 1.401325 -6.841167 1.747784 0.975745 -4.290829 19.317657 0.000004 -0.000001 0.000001 -5.234665 -14.009297 5.961760 1.421478 -4.592410 19.068153 -0.000001 0.000000 -0.000002 -6.123068 -14.120943 22.999690 2.904565 -2.693787 11.162815 0.000002 -0.000001 -0.000001 -95.299369 -15.808121 24.685975 96.325318 -9.741489 1.367820 -19.512636 0.497641 -17.529230 -1.836420 -0.000606 -0.000033 -0.000000 0.000005 0.000000 -96.756159 5.458486 -33.071407 98.987172 5.635487 0.795899 -19.585928 -1.501115 11.856129 0.459009 0.014335 -0.062039 0.000000 0.000000 -0.000000 
-0.228931 64.254593 5.744940 39.890299 -53.385483 31.778104 7.658480 -1.909472 -2.578194 3.920443 -3.180469 -2.492624 0.000000 0.000000 0.000000 3.905906 -3.129783 -2.551259 -3.463315 17.929190 -7.697894 -39.698122 35.578602 8.116827 0.000000 -0.000000 0.000000 5.951871 -8.061966 -6.968066 0.000000 0.000000 0.000000 -65.208554 0.226330 -22.718871 22.757994 -28.220340 17.107319 -1.837084 -8.526873 1.949945 40.109938 -15.297146 -0.360511 5.639812 28.097914 11.338844 1.088571 40.896297 22.734015 -0.000001 0.000000 -0.000001 6.878496 2.806577 -61.137160 8.247995 7.640047 -89.897884 0.000000 -0.000001 0.000001 -2.348150 4.689081 -62.677654 8.755050 9.896961 -87.054320 0.000000 -0.000000 0.000001 -9.042446 10.045666 -60.766178 8.524221 9.509174 -66.909865 -0.000001 0.000000 0.000002 -17.946899 14.754988 -51.485850 8.861918 8.674116 -84.830799 0.000001 -0.000001 0.000002 6.023417 9.139926 16.277673 0.000000 0.000000 0.000000 -9.808073 2.869012 46.606363 -19.217641 39.891406 9.114109 4.158432 3.984953 -18.528408 -7.704057 -5.623302 4.866708 1.718617 -21.838324 -8.576000 -1.382531 6.990656 3.375555 0.000001 0.000001 -0.000000 -0.751783 0.746892 -3.402910 0.027170 -0.078805 6.886467 0.000001 0.000000 0.000000 1.379480 -6.896976 0.604299 0.922510 -4.308986 18.305597 -0.000000 0.000000 -0.000000 -4.598590 -14.115957 4.200482 1.257785 -4.370500 17.870671 0.000000 0.000001 0.000002 -6.286755 -13.898196 19.326213 2.878215 -2.716627 9.974130 0.000002 0.000001 0.000003 -97.924320 -17.461404 24.583032 98.433783 -10.005459 1.354652 -19.029185 0.396167 -18.116582 -1.836420 -0.000601 -0.000033 -0.000000 -0.000000 -0.000000 -99.797014 6.653284 -33.209981 101.498073 6.250991 0.746402 -18.766524 -1.523570 11.646546 0.115779 0.014802 -0.062321 -0.000000 0.000000 0.000000 
-0.001709 62.826164 5.333271 40.427712 -53.311938 32.156114 7.359554 -1.823480 -2.505605 4.076467 -3.077121 -2.496174 0.000000 0.000000 0.000000 4.062605 -3.028778 -2.551578 -2.778655 18.321578 -8.229660 -39.519314 35.119265 7.656168 0.000000 -0.000000 -0.000000 6.122421 -8.035489 -6.996222 0.000000 0.000000 0.000000 -65.715839 -0.382983 -22.932778 23.412094 -27.614429 17.207454 -1.507583 -8.661015 1.990324 40.109938 -15.297136 -0.360509 5.639811 28.097911 11.338843 1.088575 40.896297 22.734017 -0.000001 -0.000002 -0.000004 6.877771 2.799588 -61.136456 8.247996 7.640052 -89.897891 -0.000001 -0.000000 0.000001 -2.348856 4.689101 -62.682374 8.754998 9.896972 -87.054039 0.000000 -0.000000 -0.000001 -9.042443 10.045669 -60.766185 8.524212 9.509254 -66.913724 0.000001 0.000000 0.000002 -17.946899 14.754991 -51.485850 8.861684 8.674421 -84.834959 0.000000 0.000000 0.000002 6.224896 9.159320 16.434221 0.000000 0.000000 0.000000 -9.202615 3.322498 45.736746 -19.298974 40.213879 9.212703 3.214260 4.447938 -18.922711 -8.110754 -5.297895 4.771012 1.635678 -21.450163 -8.501637 -1.547853 7.438896 3.524316 0.000000 -0.000000 0.000003 -0.653790 0.663562 -3.905962 0.026721 -0.078772 6.195274 0.000001 0.000000 -0.000003 1.354109 -6.946208 -0.446394 0.875419 -4.325234 17.387380 0.000000 -0.000001 -0.000000 -3.971865 -14.268007 2.470770 1.106189 -4.136317 16.709334 0.000001 -0.000000 -0.000001 -6.424700 -13.717936 15.482272 2.853919 -2.736938 8.736594 -0.000002 0.000000 0.000004 -100.520311 -19.113477 24.442213 100.447282 -10.267361 1.342612 -18.475803 0.270513 -18.723777 -1.836420 -0.000600 -0.000033 -0.000000 0.000000 0.000000 -102.954727 7.891617 -33.116111 104.001767 6.624860 0.659552 -17.740786 -1.486951 11.266187 -0.302635 0.015281 -0.062561 -0.000000 -0.000000 -0.000000 
